<mxfile host="65bd71144e">
    <diagram id="js456Ln812cobsG6Pp3S" name="Page-1">
        <mxGraphModel dx="1023" dy="779" grid="1" gridSize="10" guides="1" tooltips="1" connect="1" arrows="1" fold="1" page="1" pageScale="1" pageWidth="850" pageHeight="1100" math="0" shadow="0">
            <root>
                <mxCell id="0"/>
                <mxCell id="1" parent="0"/>
                <mxCell id="4" style="edgeStyle=none;html=1;" edge="1" parent="1" source="2">
                    <mxGeometry relative="1" as="geometry">
                        <mxPoint x="155" y="160" as="targetPoint"/>
                    </mxGeometry>
                </mxCell>
                <mxCell id="2" value="&lt;font face=&quot;Verdana&quot; color=&quot;#000000&quot;&gt;USUARIO/PACIENTE&lt;br&gt;&lt;/font&gt;" style="whiteSpace=wrap;html=1;fillColor=#f9f7ed;strokeColor=#36393d;fontFamily=Lucida Console;labelBackgroundColor=none;labelBorderColor=none;" vertex="1" parent="1">
                    <mxGeometry x="60" y="50" width="190" height="60" as="geometry"/>
                </mxCell>
                <mxCell id="12" style="edgeStyle=none;html=1;" edge="1" parent="1" source="3">
                    <mxGeometry relative="1" as="geometry">
                        <mxPoint x="380" y="160" as="targetPoint"/>
                    </mxGeometry>
                </mxCell>
                <mxCell id="3" value="&lt;font face=&quot;Verdana&quot; color=&quot;#000000&quot;&gt;MEDICO&lt;br&gt;&lt;/font&gt;" style="whiteSpace=wrap;html=1;fillColor=#f9f7ed;strokeColor=#36393d;fontFamily=Lucida Console;labelBackgroundColor=none;labelBorderColor=none;" vertex="1" parent="1">
                    <mxGeometry x="290" y="50" width="180" height="60" as="geometry"/>
                </mxCell>
                <mxCell id="5" value="&lt;font face=&quot;Verdana&quot; color=&quot;#000000&quot;&gt;REALIZAR CADASTRO&lt;br&gt;&lt;/font&gt;" style="whiteSpace=wrap;html=1;fillColor=#f9f7ed;strokeColor=#36393d;fontFamily=Lucida Console;labelBackgroundColor=none;labelBorderColor=none;" vertex="1" parent="1">
                    <mxGeometry x="60" y="160" width="190" height="40" as="geometry"/>
                </mxCell>
                <mxCell id="6" value="&lt;font face=&quot;Verdana&quot; color=&quot;#000000&quot;&gt;REALIZAR LOGIN&lt;br&gt;&lt;/font&gt;" style="whiteSpace=wrap;html=1;fillColor=#f9f7ed;strokeColor=#36393d;fontFamily=Lucida Console;labelBackgroundColor=none;labelBorderColor=none;" vertex="1" parent="1">
                    <mxGeometry x="60" y="210" width="190" height="40" as="geometry"/>
                </mxCell>
                <mxCell id="7" value="&lt;font face=&quot;Verdana&quot; color=&quot;#000000&quot;&gt;REALIZAR LOGOUT&lt;br&gt;&lt;/font&gt;" style="whiteSpace=wrap;html=1;fillColor=#f9f7ed;strokeColor=#36393d;fontFamily=Lucida Console;labelBackgroundColor=none;labelBorderColor=none;" vertex="1" parent="1">
                    <mxGeometry x="60" y="260" width="190" height="40" as="geometry"/>
                </mxCell>
                <mxCell id="8" value="&lt;font face=&quot;Verdana&quot; color=&quot;#000000&quot;&gt;AGENDAR CONSULTAS&lt;br&gt;&lt;/font&gt;" style="whiteSpace=wrap;html=1;fillColor=#f9f7ed;strokeColor=#36393d;fontFamily=Lucida Console;labelBackgroundColor=none;labelBorderColor=none;" vertex="1" parent="1">
                    <mxGeometry x="60" y="310" width="190" height="40" as="geometry"/>
                </mxCell>
                <mxCell id="9" value="&lt;font face=&quot;Verdana&quot; color=&quot;#000000&quot;&gt;PESQUISAR POR MÉDICOS&lt;br&gt;&lt;/font&gt;" style="whiteSpace=wrap;html=1;fillColor=#f9f7ed;strokeColor=#36393d;fontFamily=Lucida Console;labelBackgroundColor=none;labelBorderColor=none;" vertex="1" parent="1">
                    <mxGeometry x="60" y="360" width="190" height="40" as="geometry"/>
                </mxCell>
                <mxCell id="10" value="&lt;font face=&quot;Verdana&quot; color=&quot;#000000&quot;&gt;PESQUISAR POR ESPECIALIDADES&lt;br&gt;&lt;/font&gt;" style="whiteSpace=wrap;html=1;fillColor=#f9f7ed;strokeColor=#36393d;fontFamily=Lucida Console;labelBackgroundColor=none;labelBorderColor=none;" vertex="1" parent="1">
                    <mxGeometry x="60" y="410" width="190" height="40" as="geometry"/>
                </mxCell>
                <mxCell id="11" value="&lt;font face=&quot;Verdana&quot; color=&quot;#000000&quot;&gt;PESQUISAR POR MODALIDADES&lt;br&gt;&lt;/font&gt;" style="whiteSpace=wrap;html=1;fillColor=#f9f7ed;strokeColor=#36393d;fontFamily=Lucida Console;labelBackgroundColor=none;labelBorderColor=none;" vertex="1" parent="1">
                    <mxGeometry x="60" y="460" width="190" height="40" as="geometry"/>
                </mxCell>
                <mxCell id="14" value="&lt;font face=&quot;Verdana&quot; color=&quot;#000000&quot;&gt;REALIZAR CADASTRO&lt;br&gt;&lt;/font&gt;" style="whiteSpace=wrap;html=1;fillColor=#f9f7ed;strokeColor=#36393d;fontFamily=Lucida Console;labelBackgroundColor=none;labelBorderColor=none;" vertex="1" parent="1">
                    <mxGeometry x="290" y="160" width="190" height="40" as="geometry"/>
                </mxCell>
                <mxCell id="15" value="&lt;font face=&quot;Verdana&quot; color=&quot;#000000&quot;&gt;REALIZAR LOGIN&lt;br&gt;&lt;/font&gt;" style="whiteSpace=wrap;html=1;fillColor=#f9f7ed;strokeColor=#36393d;fontFamily=Lucida Console;labelBackgroundColor=none;labelBorderColor=none;" vertex="1" parent="1">
                    <mxGeometry x="290" y="210" width="190" height="40" as="geometry"/>
                </mxCell>
                <mxCell id="16" value="&lt;font face=&quot;Verdana&quot; color=&quot;#000000&quot;&gt;REALIZAR LOGOUT&lt;br&gt;&lt;/font&gt;" style="whiteSpace=wrap;html=1;fillColor=#f9f7ed;strokeColor=#36393d;fontFamily=Lucida Console;labelBackgroundColor=none;labelBorderColor=none;" vertex="1" parent="1">
                    <mxGeometry x="290" y="260" width="190" height="40" as="geometry"/>
                </mxCell>
                <mxCell id="17" value="&lt;font face=&quot;Verdana&quot; color=&quot;#000000&quot;&gt;CRIAR AGENDAMENTOS&lt;br&gt;&lt;/font&gt;" style="whiteSpace=wrap;html=1;fillColor=#f9f7ed;strokeColor=#36393d;fontFamily=Lucida Console;labelBackgroundColor=none;labelBorderColor=none;" vertex="1" parent="1">
                    <mxGeometry x="290" y="310" width="190" height="40" as="geometry"/>
                </mxCell>
                <mxCell id="18" value="&lt;font face=&quot;Verdana&quot; color=&quot;#000000&quot;&gt;VER AGENDAMENTOS POR DIA/MÊS&lt;br&gt;&lt;/font&gt;" style="whiteSpace=wrap;html=1;fillColor=#f9f7ed;strokeColor=#36393d;fontFamily=Lucida Console;labelBackgroundColor=none;labelBorderColor=none;" vertex="1" parent="1">
                    <mxGeometry x="290" y="360" width="190" height="40" as="geometry"/>
                </mxCell>
            </root>
        </mxGraphModel>
    </diagram>
</mxfile>